<svg width="62" height="97" viewBox="0 0 62 97" fill="none" xmlns="http://www.w3.org/2000/svg">
<path d="M44.8937 95.853C44.9494 96.1254 45.128 96.2413 45.416 96.2863L49.7607 96.1743C50.0622 96.1336 50.185 95.9769 50.2252 95.7195C50.1695 95.447 49.9909 95.3312 49.7029 95.2862L45.8516 95.3874L45.5108 91.9056C45.4551 91.6331 45.2765 91.5173 44.9885 91.4723C44.6871 91.513 44.5642 91.6697 44.524 91.9271L44.8937 95.853ZM0.848125 1.40745C7.69092 2.3014 19.5969 4.77811 31.0066 10.4299C42.4162 16.0818 53.2201 24.9795 57.9679 38.6447L58.8856 38.4366C54.178 24.5139 43.0995 15.4853 31.5113 9.71765C19.9231 3.94999 7.82508 1.44326 0.982283 0.549311L0.848125 1.40745ZM58.0639 38.6598C67.5462 66.076 51.8053 88.7578 45.0434 95.5248L45.7443 96.0739C52.6291 89.1503 68.6022 66.2411 58.995 38.3658L58.0639 38.6598Z" fill="#6CB644"/>
</svg>
