<svg width="28" height="27" viewBox="0 0 28 27" fill="none" xmlns="http://www.w3.org/2000/svg">
<path fill-rule="evenodd" clip-rule="evenodd" d="M14.5281 2.98052C17.0314 2.98052 19.3559 3.85714 21.144 5.61039C22.9321 7.36364 23.8261 9.64286 23.8261 12.0974C23.8261 12.974 24.5414 13.6753 25.4354 13.6753C26.3294 13.6753 27.0447 12.974 27.0447 12.0974C27.0447 8.94156 25.793 5.78571 23.4685 3.50649C21.144 1.22727 17.9255 0 14.5281 0C13.8129 0 13.0977 0.701299 13.0977 1.57792C13.0977 2.27922 13.8129 2.98052 14.5281 2.98052Z" fill="white"/>
<path fill-rule="evenodd" clip-rule="evenodd" d="M14.5281 8.41561C16.6738 8.41561 18.4619 10.1689 18.4619 12.2728C18.4619 13.1494 19.1771 13.8507 20.0712 13.8507C20.9652 13.8507 21.6804 13.1494 21.6804 12.2728C21.5016 8.41561 18.4619 5.25977 14.5281 5.25977C13.8129 5.25977 13.0977 5.96106 13.0977 6.83769C13.0977 7.53899 13.6341 8.24029 14.5281 8.41561Z" fill="white"/>
<path fill-rule="evenodd" clip-rule="evenodd" d="M7.55464 10.8702C6.8394 11.3962 6.6606 12.2728 7.19702 12.9741C7.73344 13.6754 8.62748 13.8507 9.34271 13.3247C10.4156 12.7988 11.1308 11.5715 11.1308 10.3442C10.7732 8.94161 10.2368 7.71434 9.34271 6.83771C8.62748 5.61044 7.55464 4.73382 6.30298 4.03252C5.58775 3.68187 4.69371 3.68187 3.97848 4.03252C2.54801 4.55849 1.11755 5.61044 0.402318 7.01304C-0.134106 8.41564 -0.134106 9.99356 0.402318 11.2208C1.83278 14.7273 3.97848 17.8832 6.6606 20.513C9.34272 23.1429 12.5613 25.2468 16.1374 26.4741C16.8526 26.8247 17.7467 27.0001 18.4619 27.0001C19.1772 27.0001 19.8924 26.8247 20.6076 26.6494C22.0381 25.9481 23.1109 24.7208 23.4685 23.3182C23.6474 22.6169 23.6474 21.7403 23.4685 21.039C22.7533 19.8117 21.8593 18.7598 20.6076 18.2338C19.5348 17.3572 18.2831 16.8312 16.8526 16.4806C15.601 16.4806 14.3493 17.1819 13.8129 18.2338C13.2765 18.9351 13.4553 19.8117 14.1705 20.3377C14.8858 20.8637 15.7798 20.6884 16.3162 19.9871C16.6738 19.4611 16.6738 19.2858 16.8526 19.2858C18.2831 19.9871 19.5348 20.8637 20.6076 22.091V22.2663C20.4288 22.9676 19.8924 23.4936 19.356 23.8442C18.6407 24.0195 18.1043 24.0195 17.3891 23.8442C14.3493 22.4416 11.3096 20.6884 8.9851 18.4091C6.6606 15.9546 4.69371 13.1494 3.44205 10.1689C3.08444 9.46758 3.08444 8.76628 3.26324 8.24031C3.62086 7.53901 4.33609 7.18836 5.05132 7.01304H5.23013C6.30298 7.88966 7.37583 9.11693 8.09106 10.5195C7.91225 10.6949 7.73344 10.8702 7.55464 10.8702Z" fill="white"/>
</svg>
