<svg width="30" height="16" viewBox="0 0 30 16" fill="none" xmlns="http://www.w3.org/2000/svg">
<path d="M0.457031 0.996094H6.05273C7.38737 0.996094 8.50391 1.43555 9.40234 2.31445C10.3073 3.18685 10.7598 4.2513 10.7598 5.50781C10.7598 6.75781 10.3073 7.81901 9.40234 8.69141C8.50391 9.5638 7.38737 10 6.05273 10H2.6543V15H0.457031V0.996094ZM6.05273 2.99805H2.6543V7.99805H6.05273C6.74284 7.99805 7.33203 7.76042 7.82031 7.28516C8.30859 6.80339 8.55273 6.21094 8.55273 5.50781C8.55273 4.79818 8.30859 4.20247 7.82031 3.7207C7.33203 3.23893 6.74284 2.99805 6.05273 2.99805ZM16.9414 5.19531C17.2995 5.19531 17.6478 5.24089 17.9863 5.33203C18.3314 5.41667 18.6211 5.52409 18.8555 5.6543C19.0964 5.77799 19.3112 5.9082 19.5 6.04492C19.6888 6.17513 19.8223 6.2793 19.9004 6.35742L20.0371 6.50391V0.996094H22.0391V15H20.0371V13.8965C19.946 13.9876 19.8158 14.1081 19.6465 14.2578C19.4837 14.4076 19.1322 14.6029 18.5918 14.8438C18.0514 15.0781 17.5013 15.1953 16.9414 15.1953C15.6719 15.1953 14.5716 14.7103 13.6406 13.7402C12.7096 12.7637 12.2441 11.582 12.2441 10.1953C12.2441 8.80859 12.7096 7.63021 13.6406 6.66016C14.5716 5.68359 15.6719 5.19531 16.9414 5.19531ZM15.1152 12.4609C15.7077 13.0859 16.3815 13.3984 17.1367 13.3984C17.8984 13.3984 18.5723 13.0859 19.1582 12.4609C19.7441 11.8359 20.0371 11.084 20.0371 10.2051C20.0371 9.31966 19.7441 8.56445 19.1582 7.93945C18.5723 7.31445 17.8984 7.00195 17.1367 7.00195C16.3815 7.00195 15.7077 7.31445 15.1152 7.93945C14.5293 8.56445 14.2363 9.31966 14.2363 10.2051C14.2363 11.084 14.5293 11.8359 15.1152 12.4609ZM29.8516 5.40039V7.19727H27.6445V15H25.6523V7.19727H24.2461V5.40039H25.6523V3.79883C25.6523 1.80013 26.5833 0.800781 28.4453 0.800781C28.6862 0.800781 28.9238 0.817057 29.1582 0.849609C29.3926 0.882161 29.5618 0.917969 29.666 0.957031L29.8516 0.996094V2.80273C29.5195 2.67253 29.1842 2.60417 28.8457 2.59766C28.5007 2.59766 28.2142 2.71159 27.9863 2.93945C27.7585 3.16732 27.6445 3.46029 27.6445 3.81836V5.40039H29.8516Z" fill="white"/>
</svg>
