<svg width="8" height="6" viewBox="0 0 8 6" fill="none" xmlns="http://www.w3.org/2000/svg">
<path d="M7.85743 0.829701L7.15248 0.139779C7.05743 0.0467558 6.93861 0.000244141 6.80396 0.000244141C6.66931 0.000244141 6.5505 0.0467558 6.45545 0.139779L3.06535 3.45761L1.55248 1.96924C1.45743 1.87621 1.33861 1.8297 1.20396 1.8297C1.06931 1.8297 0.950495 1.87621 0.855446 1.96924L0.150495 2.65916C0.0475248 2.75218 0 2.86846 0 3.00024C0 3.13203 0.0475247 3.24831 0.142574 3.34133L2.01188 5.17079L2.71683 5.86071C2.81188 5.95373 2.93069 6.00024 3.06535 6.00024C3.2 6.00024 3.31881 5.95373 3.41386 5.86071L4.11881 5.17079L7.85743 1.51187C7.95248 1.41885 8 1.30257 8 1.17079C8 1.039 7.95248 0.922725 7.85743 0.829701Z" fill="white"/>
</svg>
