<svg width="11" height="13" viewBox="0 0 11 13" fill="none" xmlns="http://www.w3.org/2000/svg">
<path d="M10.6765 2.18358C8.92941 1.68358 7.27941 0.983577 5.72647 0.0502441C5.59706 -0.0164225 5.43529 -0.0164225 5.30588 0.0502441C3.72059 0.983577 2.03824 1.68358 0.323529 2.18358C0.129412 2.21691 0 2.38358 0 2.58358V5.31691C0 8.18358 1.29412 10.0836 2.39412 11.1502C3.59118 12.3502 4.95 12.9836 5.5 12.9836C6.01765 12.9836 7.40882 12.3502 8.60588 11.1502C9.67353 10.0836 11 8.18358 11 5.31691V2.58358C11 2.38358 10.8706 2.21691 10.6765 2.18358ZM10.1265 2.91691V5.31691C10.1265 7.88358 8.96177 9.58358 7.99118 10.5502C6.89118 11.6502 5.69412 12.1169 5.5 12.1169C5.30588 12.1169 4.10882 11.6502 3.00882 10.5502C2.03824 9.58358 0.873529 7.88358 0.873529 5.31691V2.91691C2.49118 2.45024 4.04412 1.78358 5.53235 0.916911C6.95588 1.78358 8.50882 2.45024 10.1265 2.91691Z" fill="white"/>
</svg>
