<svg width="10" height="11" viewBox="0 0 10 11" fill="none" xmlns="http://www.w3.org/2000/svg">
<path fill-rule="evenodd" clip-rule="evenodd" d="M3.10133 0.000244141C3.31054 0.0273711 3.51976 0.0544981 3.71667 0.0951887C4.17202 0.163006 4.61507 0.352895 5.00889 0.637729C5.11965 0.71911 5.23041 0.827618 5.31656 0.949689C5.62423 1.34303 5.62423 1.9127 5.31656 2.30604C5.09504 2.60444 4.79967 2.82145 4.4797 2.94352C3.87666 3.18767 3.2244 3.29618 2.58444 3.25548C2.06755 3.24192 1.55066 3.13341 1.05839 2.92996C0.799946 2.82145 0.566115 2.65869 0.369206 2.45524C-0.0369206 2.0619 -0.0738412 1.37016 0.283058 0.922562C0.307671 0.881872 0.344592 0.854745 0.381513 0.814054C0.66457 0.529221 0.996855 0.339332 1.36606 0.230824C1.69835 0.122316 2.04294 0.0544981 2.38753 0.0273711C2.41214 0.0273711 2.44906 0.0138076 2.47368 0.0138076L3.10133 0.000244141ZM2.78135 2.40098C3.17517 2.40098 3.56899 2.34673 3.9505 2.22466C4.22125 2.15684 4.46739 2.02121 4.67661 1.81775C4.77506 1.7635 4.81198 1.62786 4.75045 1.51936C4.72583 1.47867 4.70122 1.45154 4.6643 1.42441C4.51662 1.28878 4.35663 1.19383 4.18433 1.11245C3.31054 0.773364 2.35061 0.7598 1.47682 1.08532C1.26761 1.15314 1.0707 1.27521 0.910707 1.43798C0.812253 1.50579 0.787639 1.64143 0.836866 1.74994C0.849173 1.77706 0.873787 1.80419 0.910707 1.83132C1.00916 1.92626 1.11992 2.00764 1.24299 2.07546C1.72296 2.29248 2.25215 2.41455 2.78135 2.40098ZM6.87953 11.0002C6.70724 10.9731 6.53494 10.9596 6.36265 10.9324C5.78422 10.851 5.21811 10.6747 4.70122 10.3763C4.54123 10.2949 4.45508 10.1186 4.4797 9.92873C4.50431 9.73884 4.63969 9.58964 4.79967 9.56251C4.88582 9.54895 4.97197 9.56251 5.04581 9.6032C5.84576 10.0237 6.74416 10.2 7.63025 10.1051C8.2579 10.0779 8.87324 9.9016 9.43936 9.58964C9.62396 9.48113 9.84548 9.54895 9.94394 9.7524C9.94394 9.76597 9.95625 9.76597 9.95625 9.77953C10.0547 9.98298 9.98086 10.2407 9.79626 10.3492C9.79626 10.3492 9.78395 10.3492 9.78395 10.3628C9.3409 10.6205 8.87324 10.7832 8.38097 10.8782C8.14714 10.9189 7.91331 10.946 7.69179 10.9731C7.66717 10.9731 7.64256 10.9867 7.61794 10.9867L6.87953 11.0002ZM0.0246137 6.14451C0.0246137 6.13095 0.0369206 6.10382 0.0369206 6.09026C0.0738411 5.84611 0.270751 5.69692 0.479967 5.72404C0.529195 5.73761 0.566115 5.75117 0.615343 5.7783C0.972242 5.98175 1.35375 6.11738 1.75988 6.19876C2.326 6.30727 2.91673 6.3344 3.49515 6.26658C3.5813 6.25302 3.66744 6.25302 3.74128 6.28015C3.91358 6.3344 4.02434 6.52429 4.01204 6.71418C4.01204 6.90407 3.87666 7.06683 3.70436 7.09396C2.64597 7.25672 1.57528 7.12108 0.578422 6.71418C0.516888 6.68705 0.443047 6.64636 0.381513 6.61923C0.184603 6.55142 0.0492274 6.37509 0.0246137 6.15807V6.14451ZM0.0246137 8.09766C0.0246137 8.07053 0.0369206 8.05696 0.0369206 8.02984C0.0738411 7.79926 0.270751 7.65006 0.467661 7.67719C0.516888 7.69075 0.553809 7.70431 0.590729 7.73144C0.947628 7.93489 1.32914 8.07053 1.73527 8.15191C2.25215 8.26042 2.78135 8.28754 3.29824 8.21973C3.50745 8.16547 3.72898 8.30111 3.77821 8.53169C3.82743 8.76227 3.70436 9.00641 3.49515 9.06066C3.45823 9.07423 3.42131 9.07423 3.38439 9.07423C2.46137 9.18274 1.52605 9.0471 0.652263 8.69445C0.553809 8.65376 0.455354 8.5995 0.344592 8.54525C0.159989 8.491 0.0246137 8.31467 0 8.11122V8.09766H0.0246137ZM0.0246137 4.16424C0.0369206 4.12355 0.0369206 4.08286 0.0492274 4.05573C0.110762 3.83872 0.319978 3.70308 0.529195 3.7709C0.553809 3.78446 0.578422 3.78446 0.603036 3.81159C0.984549 4.0286 1.40298 4.16424 1.82141 4.24562C2.31369 4.34056 2.81827 4.35413 3.32285 4.31344C3.53207 4.25918 3.74128 4.40838 3.79051 4.63896C3.80282 4.70678 3.80282 4.78816 3.77821 4.86954C3.74128 5.0323 3.60591 5.15437 3.44592 5.16794C2.39984 5.30357 1.34145 5.12725 0.381513 4.65252C0.307671 4.61183 0.23383 4.57114 0.172296 4.53045C0.086148 4.44907 0.0246137 4.327 0.0246137 4.20493V4.16424ZM7.06414 7.09396C6.49802 7.09396 5.93191 6.95832 5.41502 6.71418C5.23041 6.6328 5.05812 6.51073 4.91044 6.37509C4.45508 6.02244 4.33201 5.3307 4.65199 4.82885C4.72583 4.70678 4.82429 4.61184 4.92274 4.53045C5.26733 4.24562 5.67346 4.04217 6.1042 3.96079C7.0026 3.74377 7.95023 3.79802 8.82402 4.12355C9.13169 4.23206 9.41475 4.42195 9.64857 4.66609C10.0547 5.05943 10.0793 5.75117 9.72242 6.19876C9.6978 6.22589 9.67319 6.25302 9.64857 6.28015C9.3409 6.60567 8.94708 6.82269 8.52865 6.91763C8.06099 7.0397 7.55641 7.10752 7.06414 7.09396ZM7.22413 6.23946C7.75332 6.25302 8.28251 6.14451 8.76248 5.90037C8.88555 5.83255 8.99631 5.75117 9.09477 5.65622C9.19322 5.60197 9.23014 5.45277 9.18091 5.34426C9.1563 5.30357 9.13169 5.27645 9.09477 5.24932C9.02093 5.1815 8.94709 5.11368 8.87324 5.07299C8.59019 4.89667 8.27021 4.78816 7.93792 4.74747C7.26105 4.6254 6.57186 4.67965 5.9196 4.91023C5.69808 4.97805 5.48886 5.11368 5.31656 5.29001C5.23041 5.35783 5.2058 5.4799 5.26733 5.57484C5.27964 5.60197 5.30426 5.61553 5.31656 5.6291C5.42732 5.73761 5.55039 5.83255 5.67346 5.90037C6.16574 6.14451 6.69493 6.25302 7.22413 6.23946ZM7.1749 9.01997C6.36265 9.03354 5.5627 8.84365 4.82429 8.47743C4.77506 8.45031 4.71353 8.42318 4.6643 8.39605C4.4797 8.28754 4.40586 8.02984 4.50431 7.82639C4.60276 7.62293 4.82429 7.52799 5.0212 7.6365C5.32887 7.81282 5.66115 7.94846 6.00575 8.02984C7.10106 8.31467 8.24559 8.20616 9.27937 7.71788C9.3286 7.69075 9.37782 7.66362 9.43936 7.6365C9.63627 7.54155 9.85779 7.6365 9.95625 7.85351C10.0424 8.05696 9.96855 8.30111 9.79626 8.40962C9.6978 8.46387 9.61166 8.51812 9.5132 8.55881C8.76248 8.88434 7.97484 9.0471 7.1749 9.01997ZM2.84288 10.9731C1.95679 11.0002 1.0707 10.7832 0.270751 10.3628C0.0738411 10.2678 -0.0246137 10.0237 0.0615343 9.80666C0.147682 9.58964 0.369206 9.48113 0.566115 9.57608C0.578422 9.58964 0.590729 9.58964 0.615343 9.6032C0.959935 9.79309 1.32914 9.92873 1.71065 10.0101C2.25215 10.1322 2.79366 10.1593 3.33516 10.0915C3.48284 10.0644 3.64283 10.1322 3.72898 10.2678C3.81513 10.3899 3.82743 10.5662 3.7659 10.7018C3.71667 10.8375 3.5936 10.9324 3.45823 10.946C3.2244 10.946 2.99057 10.9596 2.84288 10.9731Z" fill="white"/>
</svg>
