<svg width="11" height="11" viewBox="0 0 11 11" fill="none" xmlns="http://www.w3.org/2000/svg">
<path d="M10.8685 8.23929C10.8247 8.10781 10.7371 7.97634 10.6494 7.88869C10.5179 7.75722 10.3426 7.62574 10.1673 7.58192L9.02789 7.14367C9.02789 7.09985 8.98406 7.0122 8.94024 6.96837L8.54582 6.57395V5.9604C8.58964 5.91658 8.63347 5.91658 8.63347 5.87275C9.11554 5.39068 9.42231 4.73331 9.42231 4.07594V3.50622C9.59761 3.19945 9.64143 2.84885 9.64143 2.49825V0.263192C9.64143 0.131718 9.55378 0.000244141 9.37849 0.000244141H6.31076C5.25896 0.000244141 4.33864 0.920563 4.33864 2.06001V2.49825C4.33864 2.84885 4.42629 3.19945 4.55777 3.50622V3.94447C4.55777 4.68949 4.86454 5.39068 5.43426 5.91658V6.57395L5.08367 6.96837C5.03984 7.0122 5.03984 7.05602 4.99602 7.14367L3.76892 7.58192C3.68127 7.62574 3.59363 7.66957 3.5498 7.71339L3.46215 7.66957C3.98805 7.40662 4.16335 7.05602 4.16335 7.05602C4.20717 6.96837 4.20717 6.88072 4.16335 6.8369C4.03187 6.53013 3.98805 6.00423 3.98805 5.56598C3.98805 5.43451 3.98805 5.25921 3.98805 5.17156C3.9004 4.11977 3.15538 3.33092 2.23506 3.33092C1.31474 3.33092 0.525896 4.11977 0.438247 5.12773C0.438247 5.25921 0.438247 5.39068 0.438247 5.52216C0.438247 5.9604 0.394422 6.4863 0.262948 6.79307C0.219124 6.88072 0.219124 6.96837 0.262948 7.0122C0.262948 7.0122 0.438247 7.36279 0.964143 7.62574L0.525896 7.84487C0.175299 8.06399 0 8.37076 0 8.72136V10.2552C0 10.3867 0.131474 10.5182 0.262948 10.5182C0.394422 10.5182 0.525896 10.3867 0.525896 10.2552V8.72136C0.525896 8.58989 0.613546 8.41459 0.74502 8.37076L1.40239 8.02016L1.62151 8.23929C1.97211 8.58989 2.54183 8.58989 2.89243 8.23929L3.06773 8.02016L3.1992 8.10781C3.11155 8.28311 3.06773 8.45841 3.06773 8.67754V10.2552C3.06773 10.3867 3.1992 10.5182 3.33068 10.5182C3.46215 10.5182 3.59363 10.3867 3.59363 10.2552V8.67754C3.59363 8.41459 3.76892 8.19546 3.98805 8.10781L5.25896 7.62574L5.78486 8.41459C5.78486 8.45841 5.82868 8.45841 5.87251 8.50224C6.04781 8.67754 6.35458 8.67754 6.52988 8.50224L6.749 8.23929V10.2552C6.749 10.3867 6.88048 10.5182 7.01195 10.5182C7.14343 10.5182 7.2749 10.3867 7.2749 10.2552V8.23929L7.53785 8.50224C7.58167 8.54606 7.58167 8.54606 7.6255 8.58989C7.84462 8.72136 8.15139 8.67754 8.28287 8.45841L8.80876 7.66957L10.0797 8.15164C10.3426 8.23929 10.4741 8.45841 10.4741 8.72136V10.299C10.4741 10.4305 10.6056 10.562 10.7371 10.562C10.8685 10.562 11 10.4305 11 10.299V8.72136C10.9562 8.50224 10.9123 8.37076 10.8685 8.23929ZM5.60956 7.1875L5.74104 7.05602L6.61753 7.66957L6.17928 8.10781L5.60956 7.1875ZM7.01195 6.53012C7.36255 6.53012 7.71315 6.44248 8.06374 6.311V6.57395L7.01195 7.27515L5.96016 6.53012V6.26718C6.26693 6.44248 6.61753 6.53012 7.01195 6.53012ZM5.03984 3.33092C4.90837 3.06797 4.86454 2.7612 4.86454 2.49825V2.06001C4.86454 1.22734 5.52191 0.569965 6.35458 0.569965H9.15936V2.54208C9.15936 2.84885 9.07171 3.1118 8.98406 3.37475C8.98406 3.41857 8.94024 3.4624 8.94024 3.50622V4.07594C8.94024 4.60184 8.72112 5.12773 8.32669 5.52216C8.28287 5.56598 8.23904 5.60981 8.19522 5.65363C7.84462 5.91658 7.36255 6.09188 6.9243 6.04805C5.91633 5.9604 5.12749 5.08391 5.12749 4.03212V3.4624C5.08366 3.41857 5.08367 3.37475 5.03984 3.33092ZM8.28287 7.0122L8.41434 7.14367L7.84462 8.02016L7.40637 7.58192L8.28287 7.0122ZM0.920319 5.56598C0.920319 5.43451 0.920319 5.30303 0.920319 5.17156C0.920319 4.82096 1.09562 4.51419 1.31474 4.25124L1.35857 4.20742C1.84064 3.76917 2.58566 3.76917 3.0239 4.25124C3.24303 4.51419 3.41833 4.82096 3.41833 5.17156C3.41833 5.25921 3.41833 5.34686 3.41833 5.43451C3.1992 5.17156 2.89243 4.95244 2.49801 4.82096C2.23506 4.73331 1.97211 4.68949 1.70916 4.68949C1.62151 4.68949 1.57769 4.73331 1.53386 4.77714L1.18327 5.17156C1.13944 5.25921 1.09562 5.34686 1.09562 5.43451V5.47833C1.05179 5.56598 1.09562 5.65363 1.13944 5.69746C1.22709 5.7851 1.35857 5.7851 1.44622 5.69746C1.49004 5.65363 1.49004 5.60981 1.49004 5.56598C1.49004 5.56598 1.53386 5.56598 1.53386 5.52216L1.84064 5.21538C2.10359 5.21538 2.89243 5.34686 3.1992 6.00423C3.11155 6.53012 2.62948 6.92455 2.05976 6.88072C1.53386 6.8369 1.09562 6.35483 1.09562 5.82893C1.18327 5.69746 1.05179 5.56598 0.920319 5.56598ZM1.31474 7.09985V7.23132C1.00797 7.09985 0.876494 6.96837 0.788845 6.88072C0.832669 6.79307 0.832669 6.6616 0.876494 6.57395C0.964143 6.79307 1.09562 6.96837 1.31474 7.09985ZM3.11155 7.09985C3.28685 6.96837 3.46215 6.79307 3.5498 6.57395C3.5498 6.6616 3.59363 6.79307 3.63745 6.88072C3.5498 6.96837 3.3745 7.09985 3.11155 7.23132V7.09985ZM2.62948 7.71339L2.45418 7.88869C2.32271 8.02016 2.05976 8.02016 1.92829 7.88869L1.75299 7.71339C1.79681 7.66957 1.79681 7.58192 1.79681 7.53809V7.40662C2.05976 7.49427 2.32271 7.49427 2.58566 7.40662V7.53809C2.62948 7.58192 2.62948 7.62574 2.62948 7.71339Z" fill="#59B84A"/>
<path d="M1.13944 8.94049C0.964145 8.94049 0.876495 9.07196 0.876495 9.20344V10.2552C0.876495 10.3867 0.964145 10.5182 1.13944 10.5182C1.27092 10.5182 1.40239 10.3867 1.40239 10.2552V9.20344C1.40239 9.07196 1.27092 8.94049 1.13944 8.94049Z" fill="#59B84A"/>
<path d="M5.47809 3.19947C5.60956 3.19947 5.74104 3.06799 5.74104 2.93652V2.49827C6.00399 2.45445 6.48606 2.41062 7.01195 2.45445C7.6255 2.49827 8.06375 2.67357 8.32669 2.93652C8.41434 3.02417 8.58964 3.02417 8.67729 2.93652C8.76494 2.84887 8.76494 2.67357 8.67729 2.58592C7.88845 1.79708 6.26693 1.92855 5.60956 2.0162C5.39044 2.06003 5.21514 2.27915 5.21514 2.49827V2.98035C5.21514 3.06799 5.34662 3.19947 5.47809 3.19947Z" fill="#59B84A"/>
<path d="M4.60159 9.11578C4.47012 9.11578 4.33865 9.24726 4.33865 9.37873V10.2552C4.33865 10.3867 4.47012 10.5182 4.60159 10.5182C4.73307 10.5182 4.86454 10.3867 4.86454 10.2552V9.37873C4.86454 9.20343 4.73307 9.11578 4.60159 9.11578Z" fill="#59B84A"/>
<path d="M9.37849 9.11578C9.24701 9.11578 9.11554 9.24726 9.11554 9.37873V10.2552C9.11554 10.3867 9.24701 10.5182 9.37849 10.5182C9.50996 10.5182 9.64144 10.3867 9.64144 10.2552V9.37873C9.64144 9.20343 9.55379 9.11578 9.37849 9.11578Z" fill="#59B84A"/>
</svg>
