<svg width="12" height="6" viewBox="0 0 12 6" fill="none" xmlns="http://www.w3.org/2000/svg">
<path d="M7.54293 5.06358C7.02891 5.06358 6.5149 4.83886 6.15508 4.4456C5.94948 4.22089 5.69247 4.10853 5.38405 4.10853C5.22985 4.10853 5.02424 4.22089 4.92144 4.38942C4.61303 4.78268 4.15041 5.0074 3.68779 5.06358C3.12237 5.11976 2.55695 4.89504 2.14574 4.4456C1.94013 4.22089 1.68312 4.10853 1.37471 4.10853C1.2205 4.10853 1.0149 4.22089 0.912092 4.38942C0.757886 4.61414 0.398073 4.67032 0.192466 4.50178C-0.0131417 4.27707 -0.0645436 3.88381 0.089662 3.65909C0.398073 3.26583 0.809288 2.98493 1.27191 2.98493C1.83733 2.92875 2.40275 3.20965 2.86536 3.60291C3.07097 3.82763 3.32798 3.93999 3.63639 3.88381C3.7906 3.88381 3.9962 3.77145 4.09901 3.65909C4.40742 3.26583 4.81863 2.98493 5.28125 2.98493C5.84667 2.92875 6.41209 3.20965 6.87471 3.65909C7.08032 3.88381 7.33733 3.99617 7.64574 3.93999C7.85134 3.93999 8.00555 3.82763 8.10835 3.65909C8.41677 3.26583 8.82798 2.98493 9.2906 2.98493C9.85602 2.92875 10.4214 3.15347 10.8841 3.60291C11.0897 3.82763 11.0897 4.16471 10.8841 4.38942C10.6784 4.61414 10.37 4.61414 10.1644 4.38942C9.95882 4.16471 9.70181 4.05235 9.3934 4.05235C9.23919 4.05235 9.03359 4.16471 8.93078 4.33324C8.62237 4.7265 8.21116 5.0074 7.69714 5.0074C7.64574 5.06358 7.59434 5.06358 7.54293 5.06358ZM3.53359 2.19841C3.01957 2.19841 2.50555 1.97369 2.14574 1.58044C1.94013 1.29954 1.68312 1.18718 1.37471 1.18718C1.2205 1.24336 1.0149 1.29954 0.912092 1.46808C0.809288 1.63662 0.603681 1.74898 0.449475 1.6928C0.243868 1.6928 0.089662 1.52426 0.0382601 1.35572C-0.0131418 1.18718 -0.0131418 0.962459 0.089662 0.793919C0.398073 0.344481 0.809288 0.119762 1.32331 0.0635822C1.88873 0.0074024 2.45415 0.288301 2.91676 0.68156C3.07097 0.906279 3.32798 1.01864 3.63639 1.01864C3.7906 1.01864 3.9962 0.906279 4.09901 0.73774C4.35602 0.344481 4.81863 0.119762 5.28125 0.0635822C5.84667 0.0074024 6.41209 0.288301 6.87471 0.68156C7.08032 0.906279 7.33733 1.01864 7.64574 0.962459C7.79994 0.962459 8.00555 0.850099 8.10835 0.68156C8.41677 0.288301 8.82798 0.0074024 9.2906 0.0074024C9.85602 -0.0487774 10.4214 0.232122 10.8841 0.62538C11.0897 0.850099 11.0897 1.18718 10.8841 1.46808C10.6784 1.6928 10.37 1.6928 10.1644 1.46808C9.90742 1.29954 9.65041 1.18718 9.342 1.18718C9.18779 1.18718 8.98219 1.29954 8.87938 1.46808C8.57097 1.86133 8.15976 2.14223 7.64574 2.14223C7.08032 2.19841 6.5149 1.97369 6.10368 1.52426C5.94947 1.29954 5.64106 1.18718 5.33265 1.18718C5.17845 1.18718 4.97284 1.29954 4.87004 1.46808C4.61303 1.86133 4.15041 2.14223 3.68779 2.14223C3.63639 2.19841 3.58499 2.19841 3.53359 2.19841Z" fill="#59B84A"/>
</svg>
