<svg width="11" height="12" viewBox="0 0 11 12" fill="none" xmlns="http://www.w3.org/2000/svg">
<path d="M9.7625 4.44024L5.82083 0.120244C5.775 0.0402441 5.6375 0.000244141 5.5 0.000244141C5.3625 0.000244141 5.27083 0.0402441 5.17917 0.120244L1.2375 4.40024C1.2375 4.40024 1.2375 4.40024 1.2375 4.44024C0.458333 5.24024 0 6.28024 0 7.36024C0 9.92024 2.475 12.0002 5.5 12.0002C8.525 12.0002 11 9.92024 11 7.36024C11 6.28024 10.5417 5.24024 9.7625 4.44024ZM5.5 11.3202C3.66667 11.3202 2.01667 10.4402 1.2375 9.04024C0.458333 7.64024 0.733333 6.00024 1.87917 4.80024C1.87917 4.80024 1.87917 4.76024 1.925 4.76024L5.5 0.880244L9.12083 4.80024C10.2667 6.00024 10.4958 7.64024 9.71667 9.00024C8.98333 10.4402 7.33333 11.3202 5.5 11.3202Z" fill="#59B84A"/>
<path d="M4.24514 9.00024C4.15159 9.00024 4.05804 8.88577 4.05804 8.7713V6.93973L3.30966 8.42788C3.26289 8.48512 3.21612 8.48512 3.16934 8.48512C3.12257 8.48512 3.07579 8.48512 3.02902 8.42788L2.28064 6.8825V8.71406C2.28064 8.82854 2.23387 8.88577 2.14032 8.88577C2.04677 8.88577 2 8.82854 2 8.71406V6.19566C2 6.13843 2.04677 6.02395 2.09355 6.02395C2.14032 6.02395 2.23387 6.02395 2.28064 6.08119L3.21612 7.91275L4.15159 6.08119C4.19836 6.02395 4.24514 5.96672 4.33868 6.02395C4.38546 6.02395 4.43223 6.13843 4.43223 6.19566V8.71406C4.38546 8.88577 4.33868 9.00024 4.24514 9.00024ZM6.81769 8.94301C6.72414 9.00024 6.63059 8.94301 6.63059 8.82854L6.39672 8.25617C6.20963 8.19894 5.97576 8.19894 5.78867 8.25617C5.60157 8.31341 5.46125 8.37064 5.32093 8.48512C5.18061 8.59959 5.04029 8.71406 4.89997 8.88577C4.85319 8.94301 4.75965 9.00024 4.71287 8.94301C4.6661 8.88577 4.6661 8.7713 4.6661 8.71406L5.64835 6.19566C5.69512 6.13843 5.74189 6.08119 5.78867 6.08119C5.83544 6.08119 5.88221 6.13843 5.92899 6.19566L6.91123 8.71406C6.91123 8.82854 6.86446 8.94301 6.81769 8.94301ZM5.74189 6.71079L5.13384 8.19894C5.32093 8.08446 5.50802 8.02723 5.69512 7.96999C5.88221 7.91275 6.02254 7.91275 6.20963 7.91275L5.74189 6.71079ZM8.9225 8.94301C8.87573 9.00024 8.78218 9.00024 8.73541 8.88577L8.08058 7.79828L7.42575 8.88577C7.3322 9.00024 7.23865 9.00024 7.19188 8.94301C7.1451 8.94301 7.1451 8.88577 7.1451 8.82854C7.1451 8.7713 7.1451 8.71406 7.19188 8.71406L7.94026 7.5121L7.23865 6.36737C7.19188 6.31013 7.19188 6.2529 7.19188 6.2529C7.19188 6.19566 7.23865 6.13842 7.23865 6.13842C7.28542 6.08119 7.42574 6.08119 7.47252 6.19566L8.08058 7.22592L8.68863 6.19566C8.73541 6.08119 8.82895 6.08119 8.9225 6.13842L8.96928 6.19566C8.96928 6.2529 8.96928 6.31013 8.96928 6.36737L8.26767 7.5121L8.96928 8.71406C9.01605 8.7713 9.01605 8.88577 8.9225 8.94301Z" fill="#59B84A"/>
</svg>
