<svg width="11" height="11" viewBox="0 0 11 11" fill="none" xmlns="http://www.w3.org/2000/svg">
<path d="M10.8424 8.58909L9.34491 7.21944L10.2119 6.42048C10.3695 6.26829 10.3695 6.04002 10.2513 5.84979C10.2513 5.84979 10.2513 5.84979 10.2119 5.81174C10.0148 5.65956 9.77838 5.65956 9.58135 5.81174L9.46313 5.92588L8.24151 4.82255C7.72922 4.366 7.09871 4.09968 6.38938 4.06164C6.23176 4.06164 6.07413 4.09968 5.99532 4.25187C5.9165 4.366 5.87709 4.51819 5.95591 4.67037C6.03472 4.78451 6.19235 4.89864 6.34998 4.89864C6.82286 4.93669 7.25634 5.08887 7.611 5.43129L8.83262 6.53462L6.07413 9.04564L4.85251 7.94231C4.10378 7.25749 4.10378 6.11611 4.85251 5.43129C5.01014 5.2791 5.01014 5.05083 4.89192 4.8606C4.89192 4.8606 4.89192 4.8606 4.85251 4.82255L3.51268 3.60509C3.31564 3.41486 3.27623 3.11049 3.47327 2.92026C3.47327 2.92026 3.47327 2.92026 3.51268 2.88222L4.26141 2.19739C4.81311 1.70279 4.81311 0.865787 4.26141 0.371191C3.70971 -0.123405 2.80335 -0.123405 2.25165 0.371191L1.50292 1.05602C1.30589 1.24624 0.951223 1.24624 0.754188 1.05602C0.59656 0.903832 0.320711 0.903832 0.123676 1.05602C-0.0339515 1.2082 -0.0339515 1.43647 0.0842694 1.58866C0.0842694 1.58866 0.0842694 1.58866 0.123676 1.6267C0.675374 2.1213 1.58173 2.1213 2.13343 1.6267L2.88216 0.941878C3.0792 0.751649 3.39445 0.751649 3.6309 0.941878C3.82793 1.13211 3.82793 1.43647 3.6309 1.6267L2.88216 2.31153C2.33047 2.84417 2.33047 3.68118 2.88216 4.17577L3.94615 5.16497C3.11861 6.1922 3.23683 7.5999 4.222 8.513L5.44362 9.61633L5.3254 9.73046C5.20718 9.8446 5.16777 9.99679 5.20718 10.1109C5.24658 10.2631 5.3648 10.3772 5.52243 10.4153C5.68006 10.4533 5.83769 10.4153 5.95591 10.3012L6.82286 9.50219L8.32033 10.8718C8.43855 10.986 8.59617 11.024 8.7538 10.986C8.91143 10.9479 9.02965 10.8338 9.06906 10.6816C9.10847 10.5294 9.06906 10.3772 8.95084 10.3012L7.45337 8.9315L8.7538 7.75208L10.2513 9.12173C10.3695 9.23587 10.5271 9.27391 10.6847 9.23587C10.8424 9.19782 10.9606 9.08368 11 8.9315C11 8.81736 10.9606 8.66518 10.8424 8.58909Z" fill="#59B84A"/>
</svg>
