<svg width="14" height="8" viewBox="0 0 14 8" fill="none" xmlns="http://www.w3.org/2000/svg">
<path d="M0 1.44024C0 1.56824 0.0954545 1.66424 0.222727 1.66424H2.22727V2.46424H1.97273C1.84545 2.46424 1.75 2.56024 1.75 2.68824C1.75 2.81624 1.84545 2.91224 1.97273 2.91224H2.22727V3.74424H0.731818C0.604545 3.74424 0.509091 3.84024 0.509091 3.96824C0.509091 4.09624 0.604545 4.19224 0.731818 4.19224H2.22727V6.36824C2.22727 6.49624 2.29091 6.62424 2.35455 6.72024C2.45 6.81624 2.57727 6.88024 2.70455 6.88024H4.13636C4.26364 7.48824 4.77273 7.93624 5.37727 7.93624C5.98182 7.93624 6.49091 7.48824 6.61818 6.88024H9.67273C9.73636 6.88024 9.76818 6.88024 9.83182 6.84824C9.86364 6.84824 9.89545 6.88024 9.92727 6.88024H10.5955C10.7227 7.48824 11.2318 7.93624 11.8364 7.93624C12.4409 7.93624 12.95 7.48824 13.0773 6.88024H13.7455C13.8727 6.88024 13.9682 6.78424 13.9682 6.65624V3.96824C13.9682 3.84024 13.8727 3.74424 13.7455 3.74424H13.1727L12.2182 2.04824C12.1864 1.98424 12.0909 1.92024 12.0273 1.92024H10.1818V0.480244C10.1818 0.352244 10.1182 0.224244 10.0545 0.128244C9.92727 0.0642441 9.8 0.000244141 9.67273 0.000244141H2.73636C2.57727 0.000244141 2.48182 0.0642441 2.38636 0.160244C2.29091 0.224244 2.22727 0.352244 2.22727 0.480244V1.18424H0.222727C0.0954545 1.21624 0 1.31224 0 1.44024ZM12.6636 3.80824H10.1818V2.46424H11.9318L12.6636 3.80824ZM11.0409 6.72024C11.0409 6.27224 11.3909 5.92024 11.8364 5.92024C12.2818 5.92024 12.6318 6.27224 12.6318 6.72024C12.6318 7.16824 12.2818 7.52024 11.8364 7.52024C11.4227 7.52024 11.0409 7.16824 11.0409 6.72024ZM10.15 6.46424V4.25624H13.5227V6.46424H13.0773C12.95 5.85624 12.4409 5.40824 11.8364 5.40824C11.2318 5.40824 10.7227 5.85624 10.5955 6.46424H10.15ZM4.61364 6.72024C4.61364 6.27224 4.96364 5.92024 5.40909 5.92024C5.85455 5.92024 6.20455 6.27224 6.20455 6.72024C6.20455 7.16824 5.85455 7.52024 5.40909 7.52024C4.96364 7.52024 4.61364 7.16824 4.61364 6.72024ZM2.70455 0.512244L9.67273 0.480244V6.46424H6.61818C6.49091 5.85624 5.98182 5.40824 5.37727 5.40824C4.77273 5.40824 4.26364 5.85624 4.13636 6.46424H2.70455V4.25624H4.29545C4.42273 4.25624 4.51818 4.16024 4.51818 4.03224C4.51818 3.90424 4.42273 3.80824 4.29545 3.80824H2.70455V2.97624H5.56818C5.69545 2.97624 5.79091 2.88024 5.79091 2.75224C5.79091 2.62424 5.69545 2.52824 5.56818 2.52824H2.70455V1.69624H3.81818C3.94545 1.69624 4.04091 1.60024 4.04091 1.47224C4.04091 1.34424 3.94545 1.24824 3.81818 1.24824H2.70455V0.512244Z" fill="#59B84A"/>
</svg>
