<svg width="9" height="10" viewBox="0 0 9 10" fill="none" xmlns="http://www.w3.org/2000/svg">
<path d="M2.17432 4.70337C1.80001 4.70337 1.45626 4.6117 1.14307 4.42837C0.829872 4.24504 0.577789 3.99677 0.386816 3.68358C0.203483 3.36274 0.111816 3.01517 0.111816 2.64087C0.111816 2.2742 0.207303 1.93427 0.398275 1.62108C0.589247 1.30024 0.84133 1.04816 1.15452 0.864827C1.47536 0.673855 1.81529 0.578368 2.17432 0.578368C2.54862 0.578368 2.89237 0.670035 3.20557 0.853369C3.51876 1.0367 3.76703 1.28879 3.95036 1.60962C4.14133 1.92281 4.23682 2.26656 4.23682 2.64087C4.23682 3.01517 4.14133 3.36274 3.95036 3.68358C3.76703 3.99677 3.51876 4.24504 3.20557 4.42837C2.89237 4.6117 2.54862 4.70337 2.17432 4.70337ZM0.455566 8.06066L7.68578 0.84191L8.54515 1.70129L1.31494 8.92004L0.455566 8.06066ZM2.17432 3.71795C2.47223 3.71795 2.72814 3.61483 2.94202 3.40858C3.15591 3.19469 3.26286 2.93879 3.26286 2.64087C3.26286 2.34295 3.15591 2.08705 2.94202 1.87316C2.72814 1.65927 2.47223 1.55233 2.17432 1.55233C1.8764 1.55233 1.6205 1.65927 1.40661 1.87316C1.20036 2.08705 1.09723 2.34295 1.09723 2.64087C1.09723 2.93879 1.20036 3.19469 1.40661 3.40858C1.6205 3.61483 1.8764 3.71795 2.17432 3.71795ZM6.8264 9.17212C6.45209 9.17212 6.10834 9.08045 5.79515 8.89712C5.48196 8.71379 5.22987 8.46552 5.0389 8.15233C4.85557 7.83149 4.7639 7.48392 4.7639 7.10962C4.7639 6.74295 4.85939 6.40302 5.05036 6.08983C5.24133 5.76899 5.49341 5.51691 5.80661 5.33358C6.12744 5.1426 6.46737 5.04712 6.8264 5.04712C7.20071 5.04712 7.54446 5.13879 7.85765 5.32212C8.17084 5.50545 8.41911 5.75754 8.60244 6.07837C8.79341 6.39156 8.8889 6.73531 8.8889 7.10962C8.8889 7.48392 8.79341 7.83149 8.60244 8.15233C8.41911 8.46552 8.17084 8.71379 7.85765 8.89712C7.54446 9.08045 7.20071 9.17212 6.8264 9.17212ZM6.8264 8.1867C7.11668 8.1867 7.36876 8.08358 7.58265 7.87733C7.79654 7.66344 7.90348 7.40754 7.90348 7.10962C7.90348 6.8117 7.79654 6.5558 7.58265 6.34191C7.36876 6.12802 7.11668 6.02108 6.8264 6.02108C6.52848 6.02108 6.27258 6.12802 6.05869 6.34191C5.8448 6.5558 5.73786 6.8117 5.73786 7.10962C5.73786 7.40754 5.8448 7.66344 6.05869 7.87733C6.27258 8.08358 6.52848 8.1867 6.8264 8.1867Z" fill="#59B84A"/>
</svg>
