<svg width="10" height="10" viewBox="0 0 10 10" fill="none" xmlns="http://www.w3.org/2000/svg">
<path d="M5 0.000244141C2.23967 0.000244141 0 2.23992 0 5.00024C0 6.10554 0.357766 7.12357 0.962769 7.95254L0.325771 9.83736L2.31239 9.21781C3.08901 9.71229 4.01105 10.0002 5 10.0002C7.76033 10.0002 10 7.76057 10 5.00024C10 2.23992 7.76033 0.000244141 5 0.000244141ZM7.28912 7.68204C6.38162 8.04562 5.29959 7.69367 4.11577 6.79489C2.93194 5.89611 2.15241 4.63084 2.10006 3.69134C2.0477 2.75184 2.81268 2.27773 3.22862 2.28064C3.64456 2.28355 4.10122 3.61281 4.10704 3.81642C4.11286 4.02293 3.59802 4.38942 3.57766 4.56394C3.5573 4.73846 4.27865 5.59943 4.58406 5.83212C4.88656 6.06191 5.51193 6.50403 5.83479 6.4633C6.15474 6.41967 6.36707 5.77686 6.57068 5.73614C6.77429 5.69542 7.8854 6.24806 7.99593 6.39059C8.10646 6.53602 8.09482 7.36208 7.28912 7.68204Z" fill="#59B84A"/>
</svg>
