<svg width="4" height="8" viewBox="0 0 4 8" fill="none" xmlns="http://www.w3.org/2000/svg">
<path fill-rule="evenodd" clip-rule="evenodd" d="M0 4.17364L1.97067 4.18477L1.18475 7.01147C1.20821 7.00035 1.50147 6.56632 1.53666 6.52181C1.77126 6.17682 2.00587 5.84295 2.24047 5.50909C2.35777 5.34216 2.47507 5.17523 2.59238 5.0083L3.82405 3.22769C3.84751 3.1943 3.98827 2.99399 4 2.97173H2.20528C2.21701 2.94947 2.33431 2.64899 2.35777 2.60448C2.41642 2.48206 2.46334 2.35965 2.51026 2.23723L3.12023 0.757103C3.17889 0.634686 3.22581 0.51227 3.28446 0.389853C3.30792 0.32308 3.33138 0.267436 3.35484 0.200664C3.36657 0.167277 3.42522 0.0448609 3.42522 0.0114746H1.61877L0 4.17364Z" fill="white"/>
</svg>
