<svg width="18" height="14" viewBox="0 0 18 14" fill="none" xmlns="http://www.w3.org/2000/svg">
<path d="M17.6792 1.9354L16.0931 0.325581C15.8792 0.108527 15.6119 0 15.3089 0C15.0059 0 14.7386 0.108527 14.5248 0.325581L6.89703 8.06718L3.49307 4.59432C3.27921 4.37726 3.01188 4.26873 2.70891 4.26873C2.40594 4.26873 2.13861 4.37726 1.92475 4.59432L0.338614 6.20413C0.106931 6.42119 0 6.69251 0 7C0 7.30749 0.106931 7.57881 0.320792 7.79587L4.52673 12.0646L6.11287 13.6744C6.32673 13.8915 6.59406 14 6.89703 14C7.2 14 7.46733 13.8915 7.68119 13.6744L9.26733 12.0646L17.6792 3.52713C17.8931 3.31008 18 3.03876 18 2.73127C18 2.42377 17.8931 2.15245 17.6792 1.9354Z" fill="#59B84A"/>
</svg>
