<svg width="10" height="12" viewBox="0 0 10 12" fill="none" xmlns="http://www.w3.org/2000/svg">
<path fill-rule="evenodd" clip-rule="evenodd" d="M2.77778 0C3.0846 0 3.33333 0.268629 3.33333 0.6V1.2H6.66667V0.6C6.66667 0.268629 6.9154 0 7.22222 0C7.52905 0 7.77778 0.268629 7.77778 0.6V1.2H8.33333C9.25381 1.2 10 2.00589 10 3V10.2C10 11.1941 9.25381 12 8.33333 12H1.66667C0.746192 12 0 11.1941 0 10.2V3C0 2.00589 0.746192 1.2 1.66667 1.2H2.22222V0.6C2.22222 0.268629 2.47095 0 2.77778 0ZM2.22222 2.4H1.66667C1.35984 2.4 1.11111 2.66863 1.11111 3V4.8H8.88889V3C8.88889 2.66863 8.64016 2.4 8.33333 2.4H7.77778V3C7.77778 3.33137 7.52905 3.6 7.22222 3.6C6.9154 3.6 6.66667 3.33137 6.66667 3V2.4H3.33333V3C3.33333 3.33137 3.0846 3.6 2.77778 3.6C2.47095 3.6 2.22222 3.33137 2.22222 3V2.4ZM8.88889 6H1.11111V10.2C1.11111 10.5314 1.35984 10.8 1.66667 10.8H8.33333C8.64016 10.8 8.88889 10.5314 8.88889 10.2V6ZM2.22222 7.8C2.22222 7.46863 2.47095 7.2 2.77778 7.2H3.88889C4.19571 7.2 4.44444 7.46863 4.44444 7.8V9C4.44444 9.33137 4.19571 9.6 3.88889 9.6H2.77778C2.47095 9.6 2.22222 9.33137 2.22222 9V7.8Z" fill="#59B84A"/>
</svg>
