<svg width="5" height="11" viewBox="0 0 5 11" fill="none" xmlns="http://www.w3.org/2000/svg">
<path d="M2.65723 0.292969C2.83496 0.110677 3.05143 0.0195312 3.30664 0.0195312C3.56185 0.0195312 3.7806 0.110677 3.96289 0.292969C4.14518 0.47526 4.23633 0.69401 4.23633 0.949219C4.24089 1.20443 4.15202 1.4209 3.96973 1.59863C3.78743 1.77637 3.56868 1.86523 3.31348 1.86523C3.05827 1.86523 2.83952 1.77637 2.65723 1.59863C2.47949 1.4209 2.39062 1.20443 2.39062 0.949219C2.39062 0.69401 2.47949 0.47526 2.65723 0.292969ZM1.26953 8.99512C1.26953 8.73535 1.30371 8.43457 1.37207 8.09277L1.9873 4.77734C2.11035 4.11654 2.01693 3.78613 1.70703 3.78613C1.51107 3.78613 1.15104 3.90234 0.626953 4.13477V4.08008C0.914062 3.74284 1.2627 3.42611 1.67285 3.12988C2.08301 2.83366 2.45898 2.68783 2.80078 2.69238C3.59375 2.69238 3.86263 3.38737 3.60742 4.77734L2.99219 8.09277C2.94661 8.37077 2.92383 8.57357 2.92383 8.70117C2.92383 9.00195 3.04004 9.15007 3.27246 9.14551C3.49121 9.14551 3.83757 9.0293 4.31152 8.79688V8.85156C4.05632 9.17057 3.72363 9.47135 3.31348 9.75391C2.90332 10.0365 2.52507 10.18 2.17871 10.1846C1.57259 10.1846 1.26953 9.78809 1.26953 8.99512Z" fill="white"/>
</svg>
