<svg width="11" height="11" viewBox="0 0 11 11" fill="none" xmlns="http://www.w3.org/2000/svg">
<path d="M9.24601 6.87157C8.86104 6.47224 8.36059 6.47224 7.95958 6.87157C7.65803 7.17186 7.35968 7.46896 7.05813 7.76925C6.97472 7.85231 6.90735 7.86828 6.8079 7.82036C6.62504 7.70536 6.4069 7.6223 6.22404 7.5041C5.35466 6.95463 4.62002 6.25501 3.96879 5.45956C3.65119 5.06023 3.36889 4.64494 3.16678 4.16255C3.1347 4.06352 3.1347 4.01241 3.21811 3.92935C3.5357 3.64503 3.81801 3.34793 4.11957 3.04764C4.53661 2.63234 4.53661 2.14996 4.11957 1.73466C3.86934 1.48549 3.63515 1.25228 3.40097 1.01907C3.15074 0.769897 2.91655 0.520719 2.66633 0.287513C2.28136 -0.0958377 1.78091 -0.0958377 1.3799 0.287513C1.07835 0.587805 0.78 0.884902 0.478445 1.18519C0.19293 1.46951 0.0453603 1.80175 0.0100719 2.18191C-0.0412566 2.79846 0.109521 3.39585 0.327667 3.97727C0.780001 5.19121 1.46331 6.23904 2.28136 7.21978C3.40097 8.55192 4.73551 9.59975 6.29141 10.3473C6.99397 10.6795 7.71256 10.9447 8.47929 10.9958C9.03107 11.0277 9.49944 10.8808 9.8812 10.4623C10.1314 10.162 10.433 9.91282 10.6992 9.63169C11.1003 9.2164 11.1003 8.71804 10.6992 8.31872C10.2148 7.83633 9.73042 7.35395 9.24601 6.87157Z" fill="#59B84A"/>
</svg>
