<svg width="10" height="12" viewBox="0 0 10 12" fill="none" xmlns="http://www.w3.org/2000/svg">
<path d="M9.97896 5.61938C9.8106 6.75278 9.30554 7.71827 8.50585 8.51585C8.04287 8.93563 7.62198 9.39738 7.15901 9.81716C6.48559 10.5308 5.81217 11.2864 5.13875 12C3.70773 10.5308 2.3188 9.27145 1.01405 7.88618C0.256448 7.04663 -0.0381733 5.9552 0.00391553 4.82181C0.0460043 2.3871 1.94 0.288209 4.29697 0.0363424C6.94856 -0.257502 9.22136 1.2537 9.89478 3.73038C10.0631 4.23412 9.97896 5.53543 9.97896 5.61938ZM5.01248 6.62685C5.89634 6.62685 6.65394 5.91323 6.65394 5.03169C6.65394 4.15016 5.89634 3.39456 5.05457 3.39456C4.21279 3.39456 3.41311 4.15016 3.41311 4.98972C3.41311 5.87125 4.12862 6.62685 5.01248 6.62685Z" fill="#59B84A"/>
</svg>
