<svg width="21" height="16" viewBox="0 0 21 16" fill="none" xmlns="http://www.w3.org/2000/svg">
<g clip-path="url(#clip0_2_21960)">
<path d="M5.08651 8.43229C7.08104 8.43229 8.69793 6.86486 8.69793 4.93135C8.69793 2.99784 7.08104 1.43042 5.08651 1.43042C3.09198 1.43042 1.4751 2.99784 1.4751 4.93135C1.4751 6.86486 3.09198 8.43229 5.08651 8.43229Z" fill="#59B84A"/>
<path opacity="0.25" d="M5.08672 9.8622C7.89603 9.8622 10.1734 7.65447 10.1734 4.9311C10.1734 2.20773 7.89603 0 5.08672 0C2.2774 0 0 2.20773 0 4.9311C0 7.65447 2.2774 9.8622 5.08672 9.8622Z" fill="#59B84A"/>
<path d="M19.8284 7.44508L16.7472 4.16388C16.1363 3.57171 15.1451 3.57171 14.5304 4.16761C14.3344 4.35755 14.2038 4.58474 14.1346 4.8231C13.5199 4.36873 12.6363 4.41342 12.0715 4.9609C11.8756 5.15085 11.745 5.37804 11.6758 5.6164C11.0611 5.16202 10.1775 5.20671 9.61269 5.7542C9.4206 5.94042 9.28997 6.16016 9.22082 6.3948L7.76088 4.9907C7.15002 4.39852 6.1588 4.39852 5.54409 4.99442C4.93322 5.5866 4.93322 6.5475 5.54409 7.13967L11.1226 12.5512L7.81467 13.054C6.9195 13.1769 6.24716 13.933 6.24716 14.8082C6.24716 15.4637 6.8004 16 7.47658 16H15.2065C16.4091 16 17.5424 15.5456 18.3954 14.7188L19.6862 13.4674C20.5353 12.6443 21.004 11.5456 21.004 10.3799C21.0002 9.2961 20.5814 8.25327 19.8284 7.44508ZM19.0984 12.9088L17.8075 14.1602C17.1121 14.8343 16.1862 15.2067 15.1989 15.2067H7.47658C7.24991 15.2067 7.06549 15.0279 7.06549 14.8082C7.06549 14.324 7.43816 13.9106 7.93761 13.8399L12.0485 13.2142C12.2022 13.1918 12.3251 13.0875 12.375 12.946C12.4211 12.8045 12.3827 12.6481 12.2752 12.5438L6.12422 6.58102C5.83223 6.29796 5.83223 5.83986 6.12806 5.55308C6.27405 5.41156 6.46615 5.34079 6.65441 5.34079C6.8465 5.34079 7.03476 5.41156 7.18075 5.55308L11.2801 9.52701C11.4415 9.68344 11.6989 9.68344 11.8602 9.52701C11.9409 9.4488 11.9793 9.34824 11.9793 9.24396C11.9793 9.13967 11.9409 9.03912 11.8602 8.9609L10.1851 7.33707C9.89316 7.05401 9.89316 6.59591 10.189 6.30913C10.481 6.02608 10.9535 6.02608 11.2455 6.30913L12.9206 7.93297C13.082 8.0894 13.3394 8.0894 13.5007 7.93297C13.5814 7.85476 13.6198 7.7542 13.6198 7.64992C13.6198 7.54563 13.5814 7.44508 13.5007 7.36686L12.644 6.53632C12.352 6.25327 12.352 5.79517 12.6478 5.50839C12.9398 5.22534 13.4124 5.22534 13.7044 5.50839L14.5649 6.34265C14.7263 6.49163 14.9799 6.48791 15.1374 6.33521C15.2988 6.17878 15.2988 5.92925 15.1374 5.77282L15.1028 5.7393C14.9607 5.6015 14.8838 5.419 14.8838 5.22906C14.8838 5.03912 14.9607 4.85662 15.1067 4.71509C15.3986 4.43204 15.8712 4.43576 16.1478 4.7002L19.2175 7.97021C19.8361 8.62943 20.1742 9.48232 20.1742 10.3724C20.178 11.3371 19.7977 12.2346 19.0984 12.9088Z" fill="white"/>
</g>
<defs>
<clipPath id="clip0_2_21960">
<rect width="21" height="16" fill="white"/>
</clipPath>
</defs>
</svg>
