<svg width="21" height="24" viewBox="0 0 21 24" fill="none" xmlns="http://www.w3.org/2000/svg">
<path d="M18.6 13.2V13.7C18.6 18 15.2 21.4 11 21.4C6.79999 21.4 3.39999 17.9 3.39999 13.6C3.39999 9.3 6.79999 5.9 11 5.9C11.3 5.9 11.6 5.9 11.9 6L9.59999 8.3L11.3 10L16.2 5L11.3 0L9.59999 1.8L11.2 3.4C9.09999 3.4 6.99999 4.1 5.19999 5.3C2.99999 6.9 1.49999 9.3 1.09999 12.1C0.299992 17.6 3.99999 22.9 9.39999 23.7C9.89999 23.8 10.5 23.8 11 23.8C13.1 23.8 15.1 23.2 16.8 21.9C19 20.3 20.5 17.9 20.9 15.2C21 14.7 21 14.1 21 13.6V13.1H18.6V13.2Z" fill="#59B84A"/>
</svg>
