<svg width="22" height="13" viewBox="0 0 22 13" fill="none" xmlns="http://www.w3.org/2000/svg">
<path d="M17.6504 7.70414C17.3235 7.29075 17.418 7.10965 17.6504 6.7435C17.6543 6.73956 20.3436 3.02298 20.6232 1.76312C20.761 1.30249 20.6232 0.967835 19.9577 0.967835H17.7527C17.1897 0.967835 16.9337 1.25918 16.7959 1.58202C16.7959 1.58202 15.6737 4.26709 14.0869 6.00727C13.575 6.51122 13.3388 6.67264 13.0592 6.67264C12.9214 6.67264 12.7088 6.51122 12.7088 6.05058V1.75525C12.7088 1.20406 12.5513 0.959961 12.0867 0.959961H8.62167C8.27124 0.959961 8.05861 1.21587 8.05861 1.45603C8.05861 1.97966 8.85399 2.09777 8.93667 3.57023V6.75925C8.93667 7.45611 8.81067 7.58603 8.52717 7.58603C7.77905 7.58603 5.95992 4.88915 4.88105 1.80249C4.66055 1.20406 4.44792 0.959961 3.88092 0.959961H1.67592C1.04592 0.959961 0.919922 1.2513 0.919922 1.57414C0.919922 2.14502 1.66805 4.99545 4.40461 8.75928C6.22767 11.3262 8.79492 12.72 11.1299 12.72C12.5316 12.72 12.7049 12.4089 12.7049 11.8774C12.7049 9.42464 12.5789 9.19235 13.2797 9.19235C13.6065 9.19235 14.1657 9.35377 15.4769 10.5939C16.9731 12.0625 17.2212 12.72 18.0599 12.72H20.2649C20.8949 12.72 21.2099 12.4089 21.0287 11.8026C20.6074 10.5191 17.7764 7.87738 17.6504 7.70414Z" fill="white"/>
</svg>
