<svg width="24" height="24" viewBox="0 0 24 24" fill="none" xmlns="http://www.w3.org/2000/svg">
<path d="M11.7394 0.414062C5.48708 0.414062 0.414062 5.48708 0.414062 11.7394C0.414062 14.243 1.22443 16.5489 2.5948 18.4266L1.15196 22.6958L5.65179 21.2925C7.41088 22.4125 9.49938 23.0648 11.7394 23.0648C17.9917 23.0648 23.0648 17.9917 23.0648 11.7394C23.0648 5.48708 17.9917 0.414062 11.7394 0.414062ZM16.9244 17.8139C14.8689 18.6374 12.418 17.8402 9.73656 15.8044C7.05511 13.7686 5.28943 10.9027 5.17084 8.77466C5.05225 6.64663 6.78499 5.57273 7.72712 5.57932C8.66925 5.58591 9.70362 8.59678 9.7168 9.05796C9.72997 9.52573 8.56384 10.3559 8.51772 10.7512C8.4716 11.1465 10.1055 13.0966 10.7973 13.6237C11.4825 14.1442 12.899 15.1456 13.6303 15.0534C14.355 14.9545 14.8359 13.4985 15.2971 13.4063C15.7583 13.314 18.275 14.5658 18.5254 14.8886C18.7758 15.2181 18.7494 17.0891 16.9244 17.8139Z" fill="white"/>
</svg>
