<svg width="19" height="14" viewBox="0 0 19 14" fill="none" xmlns="http://www.w3.org/2000/svg">
<path fill-rule="evenodd" clip-rule="evenodd" d="M18.9122 4.05489C18.7937 2.09994 17.3652 0.521964 15.5286 0.314145C13.6235 0.109951 11.5988 0 9.5 0C7.40118 0 5.3776 0.109951 3.47258 0.312937C1.63597 0.521964 0.207488 2.09994 0.0889236 4.05489C0.0307812 5.01666 0 6.00138 0 6.9994C0 7.99741 0.0307812 8.98214 0.0889236 9.94511C0.207488 11.9001 1.63711 13.478 3.47258 13.6859C5.3776 13.89 7.40232 14 9.5 14C11.5977 14 13.6235 13.8901 15.5274 13.6871C17.364 13.4792 18.7925 11.9001 18.9111 9.94511C18.9692 8.98214 19 7.99862 19 6.9994C19 6.00017 18.9704 5.01666 18.9122 4.05489ZM7.73863 10.0152V3.98481L12.4026 7.0006L7.73863 10.0152Z" fill="white"/>
</svg>
