<svg width="74" height="52" viewBox="0 0 74 52" fill="none" xmlns="http://www.w3.org/2000/svg">
<path fill-rule="evenodd" clip-rule="evenodd" d="M0.341873 14.7714C0.808064 7.64978 6.37127 1.90144 13.524 1.13998C20.9431 0.400535 28.8239 0 36.9978 0C45.1717 0 53.0569 0.400535 60.4716 1.14439C67.6243 1.90144 73.1875 7.64978 73.6492 14.7714C73.8757 18.2794 73.9956 21.8622 73.9956 25.5022C73.9956 29.1422 73.8757 32.725 73.6492 36.233C73.1875 43.3546 67.6199 49.103 60.4716 49.8644C53.0525 50.6039 45.1672 51.0044 36.9978 51.0044C28.8283 51.0044 20.9386 50.6039 13.5195 49.86C6.37127 49.0986 0.808064 43.3458 0.341873 36.2286C0.119878 32.7206 0 29.1378 0 25.4978C0 21.8622 0.119878 18.2794 0.341873 14.7714Z" fill="#FF0000"/>
<path fill-rule="evenodd" clip-rule="evenodd" d="M48.3018 25.4978L30.1381 36.4839V14.5161L48.3018 25.4978Z" fill="white"/>
</svg>
