<svg width="45" height="45" viewBox="0 0 45 45" fill="none" xmlns="http://www.w3.org/2000/svg">
<path d="M22.5 0C10.0785 0 0 10.0785 0 22.5C0 27.4738 1.60995 32.055 4.33246 35.7853L1.46597 44.267L10.4058 41.4791C13.9005 43.7042 18.0497 45 22.5 45C34.9215 45 45 34.9215 45 22.5C45 10.0785 34.9215 0 22.5 0ZM32.801 34.5681C28.7173 36.2042 23.8482 34.6204 18.5209 30.5759C13.1937 26.5314 9.68586 20.8377 9.45026 16.6099C9.21466 12.3822 12.6571 10.2487 14.5288 10.2618C16.4005 10.2749 18.4555 16.2565 18.4817 17.1728C18.5079 18.1021 16.1911 19.7513 16.0995 20.5366C16.0079 21.322 19.2539 25.1963 20.6283 26.2435C21.9895 27.2775 24.8037 29.267 26.2565 29.0838C27.6963 28.8874 28.6518 25.9948 29.5681 25.8115C30.4843 25.6283 35.4843 28.1152 35.9817 28.7565C36.4791 29.411 36.4267 33.1283 32.801 34.5681Z" fill="#59B84A"/>
</svg>
