<svg width="17" height="24" viewBox="0 0 17 24" fill="none" xmlns="http://www.w3.org/2000/svg">
<path d="M17 8.4C17 3.84 13.1143 0 8.5 0C3.88571 0 0 3.84 0 8.4C0 10.8 0.971429 12.72 2.42857 14.16V22.8C2.42857 23.28 2.67143 23.76 3.15714 23.76C3.64286 24 4.12857 24 4.37143 23.76L8.5 20.64L12.6286 23.76C13.1143 24 13.6 24 13.8429 23.76C14.3286 23.76 14.5714 23.28 14.5714 22.8V14.16C16.0286 12.72 17 10.8 17 8.4ZM8.5 2.4C11.9 2.4 14.5714 5.04 14.5714 8.4C14.5714 11.76 11.9 14.4 8.5 14.4C5.1 14.4 2.42857 11.76 2.42857 8.4C2.42857 5.04 5.1 2.4 8.5 2.4ZM7.77143 18.24L4.85714 20.4V16.08C6.07143 16.56 7.28571 16.8 8.5 16.8C9.71429 16.8 10.9286 16.56 12.1429 16.08V20.4L9.22857 18.24C8.74286 18 8.25714 18 7.77143 18.24Z" fill="white"/>
</svg>
