<svg width="30" height="30" viewBox="0 0 30 30" fill="none" xmlns="http://www.w3.org/2000/svg">
<path d="M7.575 18.1815L4.395 21.3645L8.637 25.6065L25.6065 8.63554L21.3645 4.39504L18.18 7.57504L20.3025 9.69604L18.18 11.82L16.059 9.69754L13.938 11.82L16.059 13.941L13.938 16.062L11.817 13.941L9.6945 16.062L11.817 18.183L9.6945 20.3055L7.575 18.18V18.1815ZM22.425 1.21204L28.788 7.57504C29.0692 7.85633 29.2272 8.2378 29.2272 8.63554C29.2272 9.03329 29.0692 9.41475 28.788 9.69604L9.696 28.788C9.41471 29.0692 9.03325 29.2272 8.6355 29.2272C8.23775 29.2272 7.85629 29.0692 7.575 28.788L1.212 22.425C0.930792 22.1438 0.772819 21.7623 0.772819 21.3645C0.772819 20.9668 0.930792 20.5853 1.212 20.304L20.304 1.21204C20.5853 0.930836 20.9668 0.772862 21.3645 0.772862C21.7622 0.772862 22.1437 0.930836 22.425 1.21204ZM18.18 24.5445L20.3025 22.4235L23.6655 25.788H25.7865V23.667L22.4235 20.3025L24.5445 18.1815L28.5 22.1355V28.5H22.137L18.1815 24.5445H18.18ZM5.454 11.817L1.2105 7.57504C1.07103 7.43573 0.960396 7.2703 0.884909 7.0882C0.809423 6.90611 0.770569 6.71092 0.770569 6.51379C0.770569 6.31667 0.809423 6.12148 0.884909 5.93938C0.960396 5.75728 1.07103 5.59185 1.2105 5.45254L5.454 1.21054C5.73529 0.929335 6.11675 0.771362 6.5145 0.771362C6.91224 0.771362 7.29371 0.929335 7.575 1.21054L11.82 5.45254L9.696 7.57504L6.5145 4.39204L4.3935 6.51454L7.575 9.69454L5.454 11.817Z" fill="white"/>
</svg>
