<svg width="33" height="40" viewBox="0 0 33 40" fill="none" xmlns="http://www.w3.org/2000/svg">
<path fill-rule="evenodd" clip-rule="evenodd" d="M16.9689 0C8.15904 0 0.937836 7.22022 0.937836 16.0289C0.937836 20.5054 2.67093 24.4043 5.55941 27.2924C8.44789 30.1805 15.2358 34.3682 15.6691 38.8448C15.6691 39.5668 16.2468 40 16.8245 40C17.5466 40 17.9799 39.4224 17.9799 38.8448C18.4132 34.5126 25.2011 30.1805 28.0896 27.2924C30.9781 24.4043 32.7111 20.361 32.7111 16.0289C33 7.22022 25.7788 0 16.9689 0Z" fill="#FF4433"/>
<path fill-rule="evenodd" clip-rule="evenodd" d="M16.9689 21.6605C20.0018 21.6605 22.6014 19.2056 22.6014 16.0287C22.6014 12.9963 20.1462 10.397 16.9689 10.397C13.936 10.397 11.3364 12.8518 11.3364 16.0287C11.3364 19.0612 13.936 21.6605 16.9689 21.6605Z" fill="white"/>
</svg>
