<svg width="43" height="43" viewBox="0 0 43 43" fill="none" xmlns="http://www.w3.org/2000/svg">
<path d="M7.36574 16.7766C6.76574 18.5766 4.76574 19.5766 2.96574 18.9766C1.16574 18.3766 0.165742 16.3766 0.765742 14.5766C1.36574 12.7766 3.36574 11.7766 5.16574 12.3766C6.96574 12.9766 7.96574 14.9766 7.36574 16.7766Z" fill="#7AB94B"/>
<path opacity="0.1" d="M20.9658 4.57664C20.5658 5.77664 19.5658 6.67664 18.3658 6.87664C17.4658 7.07664 16.5658 6.87664 15.7658 6.37664C14.9658 5.87664 14.4658 5.07664 14.2658 4.17664C14.0658 3.57664 14.1658 2.97664 14.3658 2.37664C14.7658 1.17664 15.7658 0.276641 16.9658 0.0766407C17.8658 -0.123359 18.8658 0.0766407 19.5658 0.576641C20.3658 1.07664 20.8658 1.87664 21.0658 2.77664C21.2658 3.37664 21.1658 3.97664 20.9658 4.57664Z" fill="#7AB94B"/>
<path opacity="0.2" d="M30.4658 5.07663C29.8658 6.87663 27.8658 7.87663 26.0658 7.27663C24.2658 6.67663 23.2658 4.67663 23.8658 2.87663C24.4658 1.07663 26.4658 0.0766305 28.2658 0.676631C30.0658 1.27663 31.0658 3.17663 30.4658 5.07663Z" fill="#7AB94B"/>
<path opacity="0.3" d="M38.3658 10.1766C38.1658 10.7766 37.8658 11.2766 37.3658 11.6766C36.6658 12.2766 35.7658 12.5766 34.8658 12.5766C33.9658 12.4766 33.0658 12.0766 32.4658 11.3766C31.6658 10.4766 31.3658 9.17665 31.7658 7.97665C31.9658 7.37665 32.2658 6.87665 32.7658 6.47665C34.1658 5.17665 36.4658 5.27665 37.6658 6.77665C38.4658 7.67665 38.7658 9.07665 38.3658 10.1766Z" fill="#7AB94B"/>
<path opacity="0.4" d="M42.6655 18.6767C42.2655 19.8767 41.2655 20.7767 40.0655 20.9767C38.1655 21.3767 36.2655 20.1767 35.8655 18.2767C35.7655 17.6767 35.7655 17.0767 35.9655 16.4767C36.3655 15.2767 37.3655 14.3767 38.5655 14.1767C39.4655 13.9767 40.4655 14.1767 41.1655 14.6767C41.9655 15.1767 42.4655 15.9767 42.6655 16.8767C42.9655 17.4767 42.8655 18.0767 42.6655 18.6767Z" fill="#7AB94B"/>
<path opacity="0.5" d="M42.1655 28.0766C41.5655 29.8766 39.5655 30.8766 37.7655 30.2766C36.8655 29.9766 36.1655 29.3766 35.7655 28.5766C35.3655 27.7766 35.2655 26.7766 35.5655 25.8766C36.1655 24.0766 38.1655 23.0766 39.9655 23.6766C41.7655 24.2766 42.7655 26.2766 42.1655 28.0766Z" fill="#7AB94B"/>
<path opacity="0.58" d="M37.0655 36.0765C36.8655 36.6765 36.5655 37.1765 36.0655 37.5765C34.6655 38.8765 32.3655 38.7765 31.1655 37.2765C30.3655 36.3765 30.0655 35.0765 30.4655 33.8765C30.6655 33.2765 30.9655 32.7765 31.4655 32.3765C32.8655 31.0765 35.1655 31.1765 36.3655 32.6765C37.1655 33.5765 37.4655 34.8765 37.0655 36.0765Z" fill="#7AB94B"/>
<path opacity="0.65" d="M28.5659 40.3767C28.1659 41.5767 27.1659 42.4767 25.9659 42.6767C24.0659 43.0767 22.1659 41.8767 21.7659 39.9767C21.6659 39.3767 21.6659 38.7767 21.8659 38.1767C22.2659 36.9767 23.2659 36.0767 24.4659 35.8767C26.3659 35.4767 28.2659 36.6767 28.6659 38.5767C28.8659 39.1767 28.7659 39.7767 28.5659 40.3767Z" fill="#7AB94B"/>
<path opacity="0.72" d="M19.1655 39.8767C18.5655 41.6767 16.5655 42.6767 14.7655 42.0767C12.9655 41.4767 11.9655 39.4767 12.5655 37.6767C12.8655 36.7767 13.4655 36.0767 14.2655 35.6767C15.0655 35.2767 16.0655 35.1767 16.9655 35.4767C18.7655 36.0767 19.7655 38.0767 19.1655 39.8767Z" fill="#7AB94B"/>
<path opacity="0.8" d="M11.1656 34.6767C10.9656 35.2767 10.6656 35.7767 10.1656 36.1767C8.76557 37.4767 6.46556 37.3767 5.26556 35.8767C4.46556 34.9767 4.16556 33.6767 4.56556 32.4767C4.76556 31.9767 5.06556 31.4767 5.56556 30.9767C6.26556 30.3767 7.16557 30.0767 8.06556 30.0767C8.96556 30.0767 9.86556 30.5767 10.4656 31.2767C11.2656 32.1767 11.5656 33.4767 11.1656 34.6767Z" fill="#7AB94B"/>
<path opacity="0.88" d="M6.86569 26.2766C6.46569 27.4766 5.46568 28.3766 4.26569 28.5766C2.36568 28.9766 0.465685 27.7766 0.0656854 25.8766C-0.0343146 25.2766 -0.0343146 24.6766 0.165685 24.0766C0.565685 22.8766 1.56569 21.9766 2.76569 21.7766C3.66569 21.5766 4.66569 21.7766 5.36569 22.2766C6.16569 22.7766 6.66569 23.5766 6.86569 24.4766C7.16569 25.0766 7.06569 25.6766 6.86569 26.2766Z" fill="#7AB94B"/>
</svg>
