<svg width="20" height="20" viewBox="0 0 20 20" fill="none" xmlns="http://www.w3.org/2000/svg">
<path d="M19.8234 3.97266L13.7578 9.99918L19.8234 16.0257C19.933 15.7965 19.9996 15.5432 19.9996 15.2726V4.72574C19.9996 4.45516 19.933 4.20184 19.8234 3.97266Z" fill="#59B84A"/>
<path d="M18.2414 2.96875H1.75699C1.48641 2.96875 1.23309 3.03527 1.00391 3.14492L8.75637 10.8583C9.44184 11.5438 10.5565 11.5438 11.242 10.8583L18.9945 3.14492C18.7653 3.03527 18.512 2.96875 18.2414 2.96875Z" fill="#59B84A"/>
<path d="M0.176172 3.97266C0.0665234 4.20184 0 4.45516 0 4.72574V15.2726C0 15.5432 0.0665234 15.7966 0.176172 16.0257L6.24176 9.99918L0.176172 3.97266Z" fill="#59B84A"/>
<path d="M12.9289 10.8281L12.0705 11.6864C10.9284 12.8286 9.06992 12.8286 7.92777 11.6864L7.06949 10.8281L1.00391 16.8546C1.23309 16.9643 1.48641 17.0308 1.75699 17.0308H18.2414C18.512 17.0308 18.7653 16.9643 18.9945 16.8546L12.9289 10.8281Z" fill="#59B84A"/>
</svg>
