<svg width="20" height="24" viewBox="0 0 20 24" fill="none" xmlns="http://www.w3.org/2000/svg">
<path d="M19.9579 11.2388C19.6212 13.5056 18.6111 15.4365 17.0117 17.0317C16.0857 17.8713 15.244 18.7948 14.318 19.6343C12.9712 21.0616 11.6243 22.5728 10.2775 24C7.41545 21.0616 4.6376 18.5429 2.02809 15.7724C0.512897 14.0933 -0.0763465 11.9104 0.00783105 9.64361C0.0920086 4.77419 3.88 0.576418 8.59394 0.0726849C13.8971 -0.515004 18.4427 2.50739 19.7896 7.46077C20.1263 8.46823 19.9579 11.0709 19.9579 11.2388ZM10.025 13.2537C11.7927 13.2537 13.3079 11.8265 13.3079 10.0634C13.3079 8.30032 11.7927 6.78912 10.1091 6.78912C8.42559 6.78912 6.82621 8.30032 6.82621 9.97943C6.82621 11.7425 8.25723 13.2537 10.025 13.2537Z" fill="#59B84A"/>
</svg>
