<svg width="1107" height="765" viewBox="0 0 1107 765" fill="none" xmlns="http://www.w3.org/2000/svg">
<g opacity="0.5">
<path d="M531.25 187.5H414.583L267.708 388.542L120.833 187.5H4.16667L213.542 464.583L0 750H116.667L267.708 542.708L418.75 750H536.458L321.875 464.583L531.25 187.5Z" fill="#F8FAFC"/>
<path d="M1048.87 353.125C1011.37 313.542 960.326 288.542 900.951 283.333L1095.74 98.9584V0H648.867V95.8334H959.284L735.326 307.292L783.242 387.5C805.117 376.042 833.242 367.708 857.201 367.708C894.701 367.708 930.117 379.167 957.201 404.167C989.492 433.333 1003.03 475 1003.03 518.75C1003.03 562.5 988.451 605.208 954.076 634.375C928.034 656.25 893.659 667.708 858.242 668.75C822.826 668.75 789.492 657.292 762.409 635.417C740.534 617.708 725.951 593.75 716.576 565.625L619.701 592.708C633.242 637.5 659.284 678.125 695.742 707.292C741.576 745.833 800.951 765.625 859.284 764.583C916.576 765.625 975.951 745.833 1021.78 707.292C1076.99 661.458 1105.12 591.667 1106.16 518.75C1107.2 458.333 1089.49 397.917 1048.87 353.125Z" fill="#F8FAFC"/>
</g>
</svg>
